<?xml version="1.0" encoding="UTF-8"?>
<!DOCTYPE svg PUBLIC "-//W3C//DTD SVG 1.1//EN" "http://www.w3.org/Graphics/SVG/1.1/DTD/svg11.dtd">
<!-- Creator: CorelDRAW 2020 (64-Bit) -->
<svg xmlns="http://www.w3.org/2000/svg" xml:space="preserve" width="21.1666mm" height="21.1666mm" version="1.1" style="shape-rendering:geometricPrecision; text-rendering:geometricPrecision; image-rendering:optimizeQuality; fill-rule:evenodd; clip-rule:evenodd"
viewBox="0 0 2116.66 2116.66"
 xmlns:xlink="http://www.w3.org/1999/xlink"
 xmlns:xodm="http://www.corel.com/coreldraw/odm/2003">
 <defs>
  <style type="text/css">
   <![CDATA[
    .fil0 {fill:#AE4A84}
    .fil1 {fill:#FEFEFE}
   ]]>
  </style>
 </defs>
 <g id="Слой_x0020_1">
  <metadata id="CorelCorpID_0Corel-Layer"/>
  <g id="_2179326131536">
   <rect class="fil0" x="-0" y="-0" width="2116.67" height="2116.67" rx="211.66" ry="211.66"/>
   <path class="fil1" d="M1976.97 991.44l-167.41 342.79c-125.03,255.81 -167.88,13.5 -233.52,-42.57 -77.61,-66.24 -205.39,-43.96 -285.41,49.76 -66.5,77.84 -82.47,206.43 1.33,278.01 69.07,58.92 250.98,75.14 72.84,200.24l-236.61 165.96 -160.25 -248.24c-119.07,-169.59 -134.05,14.65 -188.56,78.51 -66.28,77.62 -195.97,75.66 -289.69,-4.35 -93.72,-80.03 -116,-207.8 -49.74,-285.4 56.03,-65.67 298.49,-108.53 42.42,-233.61l-342.66 -167.32 167.4 -342.79c125.04,-255.82 167.89,-13.49 233.53,42.57 77.61,66.25 205.39,43.97 285.42,-49.75 66.46,-77.87 82.45,-206.46 -1.34,-278.01 -67.95,-58.02 -251.06,-75.16 -72.82,-200.25l236.57 -165.96 160.27 248.23c119.07,169.61 134.06,-14.7 188.58,-78.51 66.25,-77.6 195.95,-75.65 289.66,4.36 93.74,80.04 116,207.8 49.75,285.4 -56.04,65.67 -298.49,108.53 -42.45,233.59l342.69 167.34z"/>
  </g>
 </g>
</svg>
